<svg width="26" height="24" viewBox="0 0 26 24" fill="none" xmlns="http://www.w3.org/2000/svg">
<path fill-rule="evenodd" clip-rule="evenodd" d="M1.62836 6.75C1.62836 6.33579 1.96953 6 2.39039 6H23.7273C24.1481 6 24.4893 6.33579 24.4893 6.75C24.4893 7.16421 24.1481 7.5 23.7273 7.5H2.39039C1.96953 7.5 1.62836 7.16421 1.62836 6.75Z" fill="#21272A"/>
<path fill-rule="evenodd" clip-rule="evenodd" d="M5.43854 12C5.43854 11.5858 5.77971 11.25 6.20057 11.25H19.9171C20.338 11.25 20.6792 11.5858 20.6792 12C20.6792 12.4142 20.338 12.75 19.9171 12.75H6.20057C5.77971 12.75 5.43854 12.4142 5.43854 12Z" fill="#21272A"/>
<path fill-rule="evenodd" clip-rule="evenodd" d="M10.0107 17.25C10.0107 16.8358 10.3519 16.5 10.7728 16.5H15.345C15.7658 16.5 16.107 16.8358 16.107 17.25C16.107 17.6642 15.7658 18 15.345 18H10.7728C10.3519 18 10.0107 17.6642 10.0107 17.25Z" fill="#21272A"/>
</svg>
